HIERARCHY
ROOT RootJoint
{
    OFFSET   0.000000   0.000000   0.000000
    CHANNELS 6 Xposition Yposition Zposition Xrotation Yrotation Zrotation
    JOINT pelvis_lowerback
    {
        OFFSET   0.000000   0.093605   0.000000
        CHANNELS 3 Xrotation Yrotation Zrotation
        JOINT lowerback_torso
        {
            OFFSET   0.000000   0.100000   0.000000
            CHANNELS 3 Xrotation Yrotation Zrotation
            JOINT torso_head
            {
                OFFSET   0.000000   0.282350   0.000000
                CHANNELS 3 Xrotation Yrotation Zrotation
                End Site
                {
                    OFFSET   0.000000   0.192650   0.000000
                }
            }
            JOINT rTorso_Clavicle
            {
                OFFSET  -0.001000   0.157500   0.000000
                CHANNELS 3 Xrotation Yrotation Zrotation
                JOINT rShoulder
                {
                    OFFSET  -0.117647   0.000000   0.000000
                    CHANNELS 3 Xrotation Yrotation Zrotation
                    JOINT rElbow
                    {
                        OFFSET  -0.245000   0.000000   0.000000
                        CHANNELS 3 Xrotation Yrotation Zrotation
                        JOINT rWrist
                        {
                            OFFSET  -0.240000   0.000000   0.000000
                            CHANNELS 3 Xrotation Yrotation Zrotation
                            End Site
                            {
                                OFFSET  -0.116353  -0.002500   0.000000
                            }
                        }
                    }
                }
            }
            JOINT lTorso_Clavicle
            {
                OFFSET   0.001000   0.157500   0.000000
                CHANNELS 3 Xrotation Yrotation Zrotation
                JOINT lShoulder
                {
                    OFFSET   0.117647   0.000000   0.000000
                    CHANNELS 3 Xrotation Yrotation Zrotation
                    JOINT lElbow
                    {
                        OFFSET   0.245000   0.000000   0.000000
                        CHANNELS 3 Xrotation Yrotation Zrotation
                        JOINT lWrist
                        {
                            OFFSET   0.240000   0.000000   0.000000
                            CHANNELS 3 Xrotation Yrotation Zrotation
                            End Site
                            {
                                OFFSET   0.116353  -0.002500   0.000000
                            }
                        }
                    }
                }
            }
        }
    }
    JOINT rHip
    {
        OFFSET  -0.100000  -0.051395   0.000000
        CHANNELS 3 Xrotation Yrotation Zrotation
        JOINT rKnee
        {
            OFFSET   0.000000  -0.410000   0.000000
            CHANNELS 3 Xrotation Yrotation Zrotation
            JOINT rAnkle
            {
                OFFSET   0.000000  -0.390000   0.000000
                CHANNELS 3 Xrotation Yrotation Zrotation
                JOINT rToeJoint
                {
                    OFFSET   0.000000  -0.050000   0.130000
                    CHANNELS 3 Xrotation Yrotation Zrotation
                    End Site
                    {
                        OFFSET  -0.010000   0.002000   0.060000
                    }
                }
            }
        }
    }
    JOINT lHip
    {
        OFFSET   0.100000  -0.051395   0.000000
        CHANNELS 3 Xrotation Yrotation Zrotation
        JOINT lKnee
        {
            OFFSET   0.000000  -0.410000   0.000000
            CHANNELS 3 Xrotation Yrotation Zrotation
            JOINT lAnkle
            {
                OFFSET   0.000000  -0.390000   0.000000
                CHANNELS 3 Xrotation Yrotation Zrotation
                JOINT lToeJoint
                {
                    OFFSET   0.000000  -0.050000   0.130000
                    CHANNELS 3 Xrotation Yrotation Zrotation
                    End Site
                    {
                        OFFSET   0.010000   0.002000   0.060000
                    }
                }
            }
        }
    }
}
MOTION
Frames: 7
Frame Time:   0.008333
 -2.887899   0.809730   5.504340   6.404227 -17.186502  -2.425995   9.127278   8.282391  -1.072771   7.359600   7.819781  -0.246378  -5.289684   4.022700  -3.505293   2.503578  -4.225784   5.187694  -9.162221  -5.233765  28.516547  -0.067949  59.232239   0.057751  -4.610841   3.584622  -9.761132   6.640731  11.516639  -3.007986  18.089755  22.724573 -35.213903   0.024273 -42.206816   0.009372  -7.692966  -5.095670  13.011708 -27.115843  -9.683080  -6.214624  94.157318   0.076351   0.029153  -1.727330  -8.003940   2.134676 -10.136505   0.053468   0.033126 -58.666003  12.136640   6.402859  46.609511  -0.061954  -0.043004  -7.944936  16.303391   0.510025   0.443283   0.001436   0.003574
 -2.894007   0.806609   5.525965   5.554888 -16.213474  -2.940863   8.680632   7.902125  -0.971307   7.338646   7.639689  -0.126073  -5.620041   3.947179  -3.296790   3.226231  -4.331098   6.123310  -7.807398  -5.374017  29.254996  -0.076891  57.986849   0.059975  -4.713145   3.545883 -10.174029   6.747018  10.809657  -3.318001  17.580282  21.361544 -35.324625   0.020570 -42.272150   0.008006  -7.693697  -4.486354  13.123135 -28.325447  -9.312825  -6.454588  95.450876   0.074373   0.023757  -2.890753  -8.170987   1.440306  -9.670269   0.049110   0.027551 -57.043090  11.995511   5.197661  46.884716  -0.048108  -0.034073  -7.963175  15.885608   1.416627   0.349392   0.001589   0.003087
 -2.900004   0.803033   5.547161   4.724099 -15.217173  -3.401868   8.338288   7.513160  -0.911423   7.310309   7.423348  -0.016953  -5.947376   3.885238  -3.102953   3.905803  -4.297448   7.136838  -6.519448  -5.436759  30.054141  -0.085594  56.802742   0.062421  -4.839613   3.347861 -10.434963   6.716938   9.929630  -3.681222  16.995468  19.917406 -35.446601   0.018525 -42.389298   0.007271  -7.661050  -4.031759  13.107849 -29.691348  -8.873629  -6.769052  96.422201   0.069736   0.019016  -3.998660  -8.315218   0.784850  -9.308930   0.043987   0.022734 -55.441187  11.784588   3.973045  47.380358  -0.035987  -0.026918  -7.972662  15.490756   2.263964   0.220925   0.001887   0.002845
 -2.906007   0.798827   5.568044   3.899895 -14.188042  -3.884085   8.058195   7.095796  -0.844967   7.281297   7.168447   0.113602  -6.249475   3.828098  -2.918274   4.536544  -4.181273   8.166283  -5.306076  -5.436309  30.870760  -0.090999  55.701468   0.063082  -4.964734   3.133292 -10.506446   6.606964   8.975307  -4.065222  16.387042  18.467153 -35.585285   0.017421 -42.540256   0.006885  -7.584267  -3.788091  12.958855 -31.133702  -8.426644  -7.084337  97.204497   0.064126   0.015087  -5.041017  -8.436897   0.169883  -8.988525   0.039172   0.018751 -53.854557  11.555397   2.806998  47.941050  -0.025805  -0.020956  -7.973926  15.122230   3.053617   0.099958   0.002017   0.002565
 -2.912061   0.793880   5.588709   3.082352 -13.127123  -4.405729   7.817908   6.653054  -0.762828   7.251318   6.881840   0.269374  -6.528389   3.773891  -2.741199   5.121792  -4.022090   9.180437  -4.166588  -5.394250  31.677487  -0.092762  54.678638   0.061816  -5.081502   2.938742 -10.447797   6.449825   7.998171  -4.447744  15.778244  17.048896 -35.732551   0.016734 -42.709682   0.006628  -7.474797  -3.704426  12.728293 -32.605467  -7.987182  -7.384407  97.866726   0.058419   0.011860  -6.019194  -8.539242  -0.406118  -8.702103   0.034772   0.015457 -52.290621  11.312899   1.721643  48.518243  -0.017363  -0.015888  -7.969336  14.778290   3.789396  -0.011433   0.001997   0.002242
 -2.918184   0.788134   5.609222   2.274795 -12.039485  -4.968317   7.604326   6.192677  -0.666098   7.219965   6.571596   0.445636  -6.787287   3.722258  -2.572180   5.666156  -3.844271  10.161733  -3.098026  -5.326534  32.458619  -0.091401  53.727458   0.059016  -5.189836   2.765875 -10.310494   6.265544   7.028553  -4.815774  15.181971  15.683941 -35.882228   0.016170 -42.887542   0.006373  -7.344230  -3.732285  12.459941 -34.074942  -7.558308  -7.667420  98.444836   0.052995   0.009209  -6.935894  -8.625260  -0.945168  -8.445447   0.030810   0.012726 -50.759794  11.057719   0.723018  49.092762  -0.010418  -0.011579  -7.960242  14.457258   4.475019  -0.113183   0.001869   0.001900
 -2.924383   0.781560   5.629633   1.481164 -10.931695  -5.568254   7.409835   5.723088  -0.558598   7.187458   6.245824   0.635761  -7.028621   3.673104  -2.411864   6.173815  -3.661879  11.100139  -2.096867  -5.243599  33.205427  -0.087664  52.841755   0.055178  -5.290970   2.610055 -10.129251   6.066842   6.084796  -5.162811  14.605713  14.383651 -36.030726   0.015590 -43.067442   0.006063  -7.201068  -3.836685  12.181740 -35.520038  -7.140453  -7.934458  98.959158   0.047995   0.007029  -7.794262  -8.697502  -1.449381  -8.215042   0.027274   0.010459 -49.272210  10.791077  -0.189156  49.654850  -0.004744  -0.007953  -7.947592  14.157576   5.113953  -0.205637   0.001669   0.001563
